<?xml version="1.0" encoding="utf-8"?>
<!-- Generator: Adobe Illustrator 26.0.2, SVG Export Plug-In . SVG Version: 6.00 Build 0)  -->
<svg version="1.1" id="Шар_1" xmlns="http://www.w3.org/2000/svg" xmlns:xlink="http://www.w3.org/1999/xlink" x="0px" y="0px"
	 viewBox="0 0 850 600" style="enable-background:new 0 0 850 600;" xml:space="preserve">
<style type="text/css">
	.st0{fill:url(#SVGID_1_);}
	.st1{fill:url(#SVGID_00000176725613844569778490000006658273753581346691_);}
	.st2{clip-path:url(#SVGID_00000127016405208479922690000012448032487351142332_);}
	
		.st3{fill:url(#SVGID_00000078036858912657921930000003313065891896211089_);stroke:url(#SVGID_00000069376769461830400450000006101028841673244288_);stroke-width:0.7147;stroke-miterlimit:10;}
	
		.st4{fill:url(#SVGID_00000124866242206932544470000000556203126978040704_);stroke:url(#SVGID_00000054234089052620441710000004093398008650263475_);stroke-width:0.7147;stroke-miterlimit:10;}
	
		.st5{fill:url(#SVGID_00000045593626813788047880000005341276131489023393_);stroke:url(#SVGID_00000114041996433949706300000013686555038242171296_);stroke-width:0.7147;stroke-miterlimit:10;}
	
		.st6{fill:url(#SVGID_00000114779448038050730760000009070062422856945555_);stroke:url(#SVGID_00000071527113668158076270000009768902168393641374_);stroke-width:0.7147;stroke-miterlimit:10;}
	
		.st7{fill:url(#SVGID_00000166664075800637964410000003777602345139824520_);stroke:url(#SVGID_00000134955421207552257090000002786986094610148253_);stroke-width:0.7147;stroke-miterlimit:10;}
	
		.st8{fill:url(#SVGID_00000063598015272565350040000005382573457667612038_);stroke:url(#SVGID_00000095306715076726395840000016776386218273704870_);stroke-width:0.7147;stroke-miterlimit:10;}
	
		.st9{fill:url(#SVGID_00000063619023500826844040000003462552973477874357_);stroke:url(#SVGID_00000161615764014801371940000008829798899022979493_);stroke-width:0.7147;stroke-miterlimit:10;}
	
		.st10{fill:url(#SVGID_00000143599788038713388530000006544503102499422606_);stroke:url(#SVGID_00000166669685927589838990000014167152051537590203_);stroke-width:0.7147;stroke-miterlimit:10;}
	
		.st11{fill:url(#SVGID_00000099655507414224926870000013853996076801442481_);stroke:url(#SVGID_00000039134940407568745370000008764818404408960159_);stroke-width:0.7147;stroke-miterlimit:10;}
	
		.st12{fill:url(#SVGID_00000147918796724682197510000003213590114671638449_);stroke:url(#SVGID_00000063618452638929027220000016396858551119956644_);stroke-width:0.7147;stroke-miterlimit:10;}
	
		.st13{fill:url(#SVGID_00000130647594736382797210000016668916193363921073_);stroke:url(#SVGID_00000020398304460158571210000014617998026764835230_);stroke-width:0.7147;stroke-miterlimit:10;}
	
		.st14{fill:url(#SVGID_00000048459355570887817600000005684916477730886046_);stroke:url(#SVGID_00000153684454129216373500000018247864888457523368_);stroke-width:0.7147;stroke-miterlimit:10;}
	
		.st15{fill:url(#SVGID_00000010291456128608548650000015046556161915481744_);stroke:url(#SVGID_00000106840488745054874580000012971082029277937565_);stroke-width:0.7147;stroke-miterlimit:10;}
	
		.st16{fill:url(#SVGID_00000069365746084508203960000004429033513918846602_);stroke:url(#SVGID_00000085963459079032769100000015223010107375588517_);stroke-width:0.7147;stroke-miterlimit:10;}
	
		.st17{fill:url(#SVGID_00000071553032978682647040000005135444120837960602_);stroke:url(#SVGID_00000009589979616701752490000011621979678420669874_);stroke-width:0.7147;stroke-miterlimit:10;}
	
		.st18{fill:url(#SVGID_00000037657874516023694000000004678326924726456222_);stroke:url(#SVGID_00000110434697221287188750000007353308030922647432_);stroke-width:0.7147;stroke-miterlimit:10;}
	
		.st19{fill:url(#SVGID_00000143612980019171314460000013507534128694871960_);stroke:url(#SVGID_00000075135427458611009620000018397319442754919082_);stroke-width:0.7147;stroke-miterlimit:10;}
	
		.st20{fill:url(#SVGID_00000108269116929348149210000013926809712181639307_);stroke:url(#SVGID_00000083085720732040239570000007779375180805508791_);stroke-width:0.7147;stroke-miterlimit:10;}
	
		.st21{fill:url(#SVGID_00000074437114901717572460000011501666936506264481_);stroke:url(#SVGID_00000123399148330586322950000001675680313618887084_);stroke-width:0.7147;stroke-miterlimit:10;}
	
		.st22{fill:url(#SVGID_00000052807178748729530830000017668732851894673048_);stroke:url(#SVGID_00000021815002939471093360000003599865894584209563_);stroke-width:0.7147;stroke-miterlimit:10;}
	
		.st23{fill:url(#SVGID_00000130632288231659165080000004192845349099750053_);stroke:url(#SVGID_00000131352686424992084470000005223429981509751961_);stroke-width:0.7147;stroke-miterlimit:10;}
	
		.st24{fill:url(#SVGID_00000001642617893097607980000016195910358910974388_);stroke:url(#SVGID_00000140694920476776208010000014143454866968734362_);stroke-width:0.7147;stroke-miterlimit:10;}
	
		.st25{fill:url(#SVGID_00000183238636232271724170000003688758099537787026_);stroke:url(#SVGID_00000031905047833153161530000017407553713436519850_);stroke-width:0.7147;stroke-miterlimit:10;}
	
		.st26{fill:url(#SVGID_00000024717394352805196180000014001808565042413696_);stroke:url(#SVGID_00000085233848553426671670000015335815503584222857_);stroke-width:0.7147;stroke-miterlimit:10;}
	
		.st27{fill:url(#SVGID_00000034806703098679721030000001185686392719490459_);stroke:url(#SVGID_00000180328331152193189550000013728743556757457085_);stroke-width:0.7147;stroke-miterlimit:10;}
	
		.st28{fill:url(#SVGID_00000142890473756814400360000009890049249411781294_);stroke:url(#SVGID_00000109725519840986730020000001617475345586583192_);stroke-width:0.7147;stroke-miterlimit:10;}
	
		.st29{fill:url(#SVGID_00000109723325195471966200000010475893453084877961_);stroke:url(#SVGID_00000160883711457776566690000009502285977771937209_);stroke-width:0.7147;stroke-miterlimit:10;}
	
		.st30{fill:url(#SVGID_00000028311325183020093900000013267211099517105285_);stroke:url(#SVGID_00000090294811381719259270000013626861051582285202_);stroke-width:0.7147;stroke-miterlimit:10;}
	
		.st31{fill:url(#SVGID_00000126301141645800527980000017902981730788451231_);stroke:url(#SVGID_00000035516921134932922800000017348071157091539340_);stroke-width:0.7147;stroke-miterlimit:10;}
	
		.st32{fill:url(#SVGID_00000055693830733755130520000010688681633373402754_);stroke:url(#SVGID_00000173862850241970435690000007099998960108460193_);stroke-width:0.7147;stroke-miterlimit:10;}
	
		.st33{fill:url(#SVGID_00000044894684261644689690000002006481581564768393_);stroke:url(#SVGID_00000134250419624825125470000013901838182585369741_);stroke-width:0.7147;stroke-miterlimit:10;}
	
		.st34{fill:url(#SVGID_00000025444917097065879470000016642925854007001240_);stroke:url(#SVGID_00000025412732979637379520000015800571375214114726_);stroke-width:0.7147;stroke-miterlimit:10;}
	
		.st35{fill:url(#SVGID_00000089565340977743745950000009291201132936412831_);stroke:url(#SVGID_00000173854332660506890140000002322344089589661584_);stroke-width:0.7147;stroke-miterlimit:10;}
	
		.st36{fill:url(#SVGID_00000057846625553413993210000013031345894254610877_);stroke:url(#SVGID_00000097464521993545715590000009791058733336807309_);stroke-width:0.7147;stroke-miterlimit:10;}
	
		.st37{fill:url(#SVGID_00000004535170126624123960000014215287853609368456_);stroke:url(#SVGID_00000161604791422152788340000007415268889296751024_);stroke-width:0.7147;stroke-miterlimit:10;}
	
		.st38{fill:url(#SVGID_00000174583350013575590990000013174500549213824181_);stroke:url(#SVGID_00000030481247416888857380000016902975257154392732_);stroke-width:0.7147;stroke-miterlimit:10;}
	
		.st39{fill:url(#SVGID_00000183931389976250360320000007853023612738571418_);stroke:url(#SVGID_00000082353666960507485170000001587744024768707466_);stroke-width:0.7147;stroke-miterlimit:10;}
	
		.st40{fill:url(#SVGID_00000065056043493746984570000008333818017119523974_);stroke:url(#SVGID_00000172439342245632904770000007294859666284559273_);stroke-width:0.7147;stroke-miterlimit:10;}
	
		.st41{fill:url(#SVGID_00000154398353026456081480000005889045009520146320_);stroke:url(#SVGID_00000072256618553829116980000000517747677059277444_);stroke-width:0.7147;stroke-miterlimit:10;}
	
		.st42{fill:url(#SVGID_00000000940394234935537400000009279214810352782013_);stroke:url(#SVGID_00000139262415487446845510000015203903186308285114_);stroke-width:0.7147;stroke-miterlimit:10;}
	
		.st43{fill:url(#SVGID_00000023967094675535093960000005707906275570149281_);stroke:url(#SVGID_00000048485175139398482370000002469266935856902562_);stroke-width:0.7147;stroke-miterlimit:10;}
	
		.st44{fill:url(#SVGID_00000114793472305026022170000009088023266657444490_);stroke:url(#SVGID_00000165947605787737106190000000097540428250012832_);stroke-width:0.7147;stroke-miterlimit:10;}
	
		.st45{fill:url(#SVGID_00000108295403683040276980000015754234066778263936_);stroke:url(#SVGID_00000068642618780558675820000005858236283877476751_);stroke-width:0.7147;stroke-miterlimit:10;}
	
		.st46{fill:url(#SVGID_00000061463313434035218890000000045211748146861229_);stroke:url(#SVGID_00000132772367394055367400000005869919228845287572_);stroke-width:0.7147;stroke-miterlimit:10;}
	
		.st47{fill:url(#SVGID_00000164504012117053403700000012284382712831418531_);stroke:url(#SVGID_00000035521810785407648130000009631814770195028406_);stroke-width:0.7147;stroke-miterlimit:10;}
	
		.st48{fill:url(#SVGID_00000128486980585122308120000001807347325653265817_);stroke:url(#SVGID_00000182489730478533926450000013345975946891692734_);stroke-width:0.7147;stroke-miterlimit:10;}
	
		.st49{fill:url(#SVGID_00000117669062735364247350000010781794999706881441_);stroke:url(#SVGID_00000034049905937158495680000009392642441875964306_);stroke-width:0.7147;stroke-miterlimit:10;}
	
		.st50{fill:url(#SVGID_00000057845380644878987610000006206472359211756716_);stroke:url(#SVGID_00000076584937966832983670000015033362125830965121_);stroke-width:0.7147;stroke-miterlimit:10;}
	
		.st51{fill:url(#SVGID_00000025437324949962396240000006463435069880886913_);stroke:url(#SVGID_00000037652332721424258030000004179741392354239362_);stroke-width:0.7147;stroke-miterlimit:10;}
	
		.st52{fill:url(#SVGID_00000114780384122727417380000018430380158664474529_);stroke:url(#SVGID_00000044899819939731721740000011121795843565493896_);stroke-width:0.7147;stroke-miterlimit:10;}
	
		.st53{fill:url(#SVGID_00000124855163953075181130000016426176541416200601_);stroke:url(#SVGID_00000153667569414072732980000001271725549658619783_);stroke-width:0.7147;stroke-miterlimit:10;}
	
		.st54{fill:url(#SVGID_00000054260417171242899880000007578762951184464312_);stroke:url(#SVGID_00000093869296910239462310000015372204471663734170_);stroke-width:0.7147;stroke-miterlimit:10;}
	
		.st55{fill:url(#SVGID_00000039133332524835996140000001816401589159656639_);stroke:url(#SVGID_00000024704534850614735400000016399951996022291630_);stroke-width:0.7147;stroke-miterlimit:10;}
	
		.st56{fill:url(#SVGID_00000062161593055777020650000013603360808497118392_);stroke:url(#SVGID_00000119082234353309910200000007810367841295892371_);stroke-width:0.7147;stroke-miterlimit:10;}
	
		.st57{fill:url(#SVGID_00000064325873133756869590000014563667388562639034_);stroke:url(#SVGID_00000027569167759406344370000013524175836292508345_);stroke-width:0.7147;stroke-miterlimit:10;}
	
		.st58{fill:url(#SVGID_00000176739999844942768150000018112007180077888140_);stroke:url(#SVGID_00000003805503968387453270000009255478113016043920_);stroke-width:0.7147;stroke-miterlimit:10;}
	
		.st59{fill:url(#SVGID_00000143599281876955642250000006679927524595479723_);stroke:url(#SVGID_00000161621591099541913420000006904790787593051572_);stroke-width:0.7147;stroke-miterlimit:10;}
	
		.st60{fill:url(#SVGID_00000042006966716515078030000018334063645711186322_);stroke:url(#SVGID_00000044895595013208954400000002591991542844209302_);stroke-width:0.7147;stroke-miterlimit:10;}
	
		.st61{fill:url(#SVGID_00000125564231263044576110000011283820804048009628_);stroke:url(#SVGID_00000045607246047292586920000000207409706545139078_);stroke-width:0.7147;stroke-miterlimit:10;}
	
		.st62{fill:url(#SVGID_00000132777881673596607020000006376679173056209301_);stroke:url(#SVGID_00000163759070218198103860000013470255789477292471_);stroke-width:0.7147;stroke-miterlimit:10;}
	
		.st63{fill:url(#SVGID_00000096047306431609078910000002363417155006789565_);stroke:url(#SVGID_00000117672417826560080950000005104277526599486631_);stroke-width:0.7147;stroke-miterlimit:10;}
	
		.st64{fill:url(#SVGID_00000062910362004768628190000016269138508623723948_);stroke:url(#SVGID_00000137829919559947818240000008626107149901080991_);stroke-width:0.7147;stroke-miterlimit:10;}
	
		.st65{fill:url(#SVGID_00000137833781216756567450000002180313893015500212_);stroke:url(#SVGID_00000069387428635349160840000002507278690138115474_);stroke-width:0.7147;stroke-miterlimit:10;}
	
		.st66{fill:url(#SVGID_00000063624512514395802960000012457498582966135195_);stroke:url(#SVGID_00000108302018054114348320000005188428681426700985_);stroke-width:0.7147;stroke-miterlimit:10;}
	
		.st67{fill:url(#SVGID_00000091731460835203988480000003587747217505610380_);stroke:url(#SVGID_00000088124072775637604730000011794760637866120334_);stroke-width:0.7147;stroke-miterlimit:10;}
	
		.st68{fill:url(#SVGID_00000064314317662568634460000003288646825124330152_);stroke:url(#SVGID_00000070084067351045553060000014973530371503996069_);stroke-width:0.7147;stroke-miterlimit:10;}
	
		.st69{fill:url(#SVGID_00000067215456444838056260000010986293258010026887_);stroke:url(#SVGID_00000040548104279689959950000003655057460417539501_);stroke-width:0.7147;stroke-miterlimit:10;}
	
		.st70{fill:url(#SVGID_00000101818251197132621310000005247502191539731593_);stroke:url(#SVGID_00000107552044991114183440000015542227621957293442_);stroke-width:0.7147;stroke-miterlimit:10;}
	
		.st71{fill:url(#SVGID_00000018196128057138812750000015706442848701604485_);stroke:url(#SVGID_00000020364997628917804580000011242032261317827216_);stroke-width:0.7147;stroke-miterlimit:10;}
	
		.st72{fill:url(#SVGID_00000091719322588276801420000007607698347450014629_);stroke:url(#SVGID_00000027568564793505568840000015314300895067490691_);stroke-width:0.7147;stroke-miterlimit:10;}
	
		.st73{fill:url(#SVGID_00000054239736171692204600000002664276650708147095_);stroke:url(#SVGID_00000145023078644007481120000004977582687645717139_);stroke-width:0.7147;stroke-miterlimit:10;}
	
		.st74{fill:url(#SVGID_00000014600433784972021950000001985133264198208182_);stroke:url(#SVGID_00000181060485765358617420000016100101812124364701_);stroke-width:0.7147;stroke-miterlimit:10;}
	
		.st75{fill:url(#SVGID_00000019648996899270204510000004592272910398386614_);stroke:url(#SVGID_00000127739160601719099490000012500235446973841794_);stroke-width:0.7147;stroke-miterlimit:10;}
	
		.st76{fill:url(#SVGID_00000047781837563862369910000002161807454544441222_);stroke:url(#SVGID_00000163062866426625721020000016213773215804475027_);stroke-width:0.7147;stroke-miterlimit:10;}
	
		.st77{fill:url(#SVGID_00000111187761618352058790000008763700784269321094_);stroke:url(#SVGID_00000111166266542881366660000005479214945461671870_);stroke-width:0.7147;stroke-miterlimit:10;}
	
		.st78{fill:url(#SVGID_00000173862125526821138960000008626750865032945579_);stroke:url(#SVGID_00000148633649206347229940000015080505538126357141_);stroke-width:0.7147;stroke-miterlimit:10;}
	
		.st79{fill:url(#SVGID_00000160884009521908976120000007729091410931101594_);stroke:url(#SVGID_00000078757307710101167090000009567677898949297851_);stroke-width:0.7147;stroke-miterlimit:10;}
	
		.st80{fill:url(#SVGID_00000005236921322262380750000006631196204858489013_);stroke:url(#SVGID_00000141450851881834210180000004037786587025367939_);stroke-width:0.7147;stroke-miterlimit:10;}
	
		.st81{fill:url(#SVGID_00000129913380219668308800000017090108401412751039_);stroke:url(#SVGID_00000044173793340587479710000015636880940303264668_);stroke-width:0.7147;stroke-miterlimit:10;}
	
		.st82{fill:url(#SVGID_00000127005328127855927270000015470000171014514573_);stroke:url(#SVGID_00000179648053802901986060000006831452681845231526_);stroke-width:0.7147;stroke-miterlimit:10;}
	
		.st83{fill:url(#SVGID_00000122684116785670383540000010805521072332804771_);stroke:url(#SVGID_00000121996847735684623530000011938924916756455859_);stroke-width:0.7147;stroke-miterlimit:10;}
	
		.st84{fill:url(#SVGID_00000176027656188585910360000002773212185466376116_);stroke:url(#SVGID_00000126303007853431697050000000581261617988100242_);stroke-width:0.7147;stroke-miterlimit:10;}
	
		.st85{fill:url(#SVGID_00000096022620042756547530000015615948742071807924_);stroke:url(#SVGID_00000016040186181153389890000015340626415788369799_);stroke-width:0.7147;stroke-miterlimit:10;}
	
		.st86{fill:url(#SVGID_00000089567546779478931890000004367005657047255187_);stroke:url(#SVGID_00000182490198792865143110000015233064780118239669_);stroke-width:0.7147;stroke-miterlimit:10;}
	
		.st87{fill:url(#SVGID_00000013165217038253493830000002237636979747895230_);stroke:url(#SVGID_00000106834408387698027010000010453883765653499783_);stroke-width:0.7147;stroke-miterlimit:10;}
	
		.st88{fill:url(#SVGID_00000119796071871626931710000004689690295237090483_);stroke:url(#SVGID_00000160162742402945981640000009691507980187259310_);stroke-width:0.7147;stroke-miterlimit:10;}
	
		.st89{fill:url(#SVGID_00000015335060827745920290000017662978951042721936_);stroke:url(#SVGID_00000175287469081540262400000018223726768333742732_);stroke-width:0.7147;stroke-miterlimit:10;}
	
		.st90{fill:url(#SVGID_00000041287052149343101300000018010648846199848119_);stroke:url(#SVGID_00000016070749559222748660000013532529820856416950_);stroke-width:0.7147;stroke-miterlimit:10;}
	
		.st91{fill:url(#SVGID_00000084515641962362769420000010647858296453864606_);stroke:url(#SVGID_00000040569942587173171420000002314449139886077862_);stroke-width:0.7147;stroke-miterlimit:10;}
	
		.st92{fill:url(#SVGID_00000176002183544216529660000002676410270821892737_);stroke:url(#SVGID_00000097464530437090034790000005812784245284684954_);stroke-width:0.7147;stroke-miterlimit:10;}
	
		.st93{fill:url(#SVGID_00000001633073962646652420000001761023281506127799_);stroke:url(#SVGID_00000109750007194788802870000016454961652572539273_);stroke-width:0.7147;stroke-miterlimit:10;}
	
		.st94{fill:url(#SVGID_00000010281724471285076870000003143289500728199578_);stroke:url(#SVGID_00000031910911263224272340000000064414703958432912_);stroke-width:0.7147;stroke-miterlimit:10;}
	
		.st95{fill:url(#SVGID_00000101784593347004197890000017373569172469365946_);stroke:url(#SVGID_00000064347211051902447980000014206196867957155208_);stroke-width:0.7147;stroke-miterlimit:10;}
	
		.st96{fill:url(#SVGID_00000102502940849591384730000001350560716483252139_);stroke:url(#SVGID_00000134950397608115517470000016303663038561704363_);stroke-width:0.7147;stroke-miterlimit:10;}
	
		.st97{fill:url(#SVGID_00000130641168186196341970000009410082932942929837_);stroke:url(#SVGID_00000042714268305503179790000006298940705429193638_);stroke-width:0.7147;stroke-miterlimit:10;}
	
		.st98{fill:url(#SVGID_00000152978080339318340800000002365737893099309744_);stroke:url(#SVGID_00000060001800103226881190000014210488559154855074_);stroke-width:0.7147;stroke-miterlimit:10;}
	
		.st99{fill:url(#SVGID_00000150082720879973825170000016108467645278754469_);stroke:url(#SVGID_00000015323934015503924510000013514927501035321271_);stroke-width:0.7147;stroke-miterlimit:10;}
	
		.st100{fill:url(#SVGID_00000176759003807850707430000016809104525930084797_);stroke:url(#SVGID_00000054960611364059837560000012237776791208716961_);stroke-width:0.7147;stroke-miterlimit:10;}
	
		.st101{fill:url(#SVGID_00000045609610612817260000000014913207823490706577_);stroke:url(#SVGID_00000070820252757938000740000014107679187674319263_);stroke-width:0.7147;stroke-miterlimit:10;}
	
		.st102{fill:url(#SVGID_00000029735458844930030670000010639526334145459116_);stroke:url(#SVGID_00000012433018118769617280000012248646317023239338_);stroke-width:0.7147;stroke-miterlimit:10;}
	
		.st103{fill:url(#SVGID_00000160176460317758088810000015559107248122097302_);stroke:url(#SVGID_00000067929480985543601820000004243802162034615948_);stroke-width:0.7147;stroke-miterlimit:10;}
	
		.st104{fill:url(#SVGID_00000080905279378335542640000008205313924820981933_);stroke:url(#SVGID_00000096749788697678546750000012141971584011570085_);stroke-width:0.7147;stroke-miterlimit:10;}
	
		.st105{fill:url(#SVGID_00000088119339568573631610000009924049858838686610_);stroke:url(#SVGID_00000026862279664073660000000003770988792339534516_);stroke-width:0.7147;stroke-miterlimit:10;}
	
		.st106{fill:url(#SVGID_00000134947709966148817420000001043171127074248891_);stroke:url(#SVGID_00000047018212285839026950000011543168071004939693_);stroke-width:0.7147;stroke-miterlimit:10;}
	
		.st107{fill:url(#SVGID_00000177486239756761573200000016585565225283524001_);stroke:url(#SVGID_00000136393636111904990420000018381021320335309991_);stroke-width:0.7147;stroke-miterlimit:10;}
	
		.st108{fill:url(#SVGID_00000088123619077055503890000000008046454710603410_);stroke:url(#SVGID_00000175314142336320963440000017509259805141518978_);stroke-width:0.7147;stroke-miterlimit:10;}
	
		.st109{fill:url(#SVGID_00000083806481244133540860000002076557804078699955_);stroke:url(#SVGID_00000005984981375557475120000009358707029649286061_);stroke-width:0.7147;stroke-miterlimit:10;}
	
		.st110{fill:url(#SVGID_00000142154988509842768770000006474605993371268020_);stroke:url(#SVGID_00000111164370990417834990000002990727259850397625_);stroke-width:0.7147;stroke-miterlimit:10;}
	
		.st111{fill:url(#SVGID_00000017507540031231851260000010944409613284658101_);stroke:url(#SVGID_00000011023618367046784460000004032996724855368320_);stroke-width:0.7147;stroke-miterlimit:10;}
	
		.st112{fill:url(#SVGID_00000163030825146387911870000001419784638080933810_);stroke:url(#SVGID_00000080173397612697793860000000965342534619354537_);stroke-width:0.7147;stroke-miterlimit:10;}
	
		.st113{fill:url(#SVGID_00000116943104140774036450000002249950901648976547_);stroke:url(#SVGID_00000128445694898977870740000011019762970564055478_);stroke-width:0.7147;stroke-miterlimit:10;}
	
		.st114{fill:url(#SVGID_00000036947600106684199770000008257650881926472110_);stroke:url(#SVGID_00000092438615858437893150000014225584836411632513_);stroke-width:0.7147;stroke-miterlimit:10;}
	
		.st115{fill:url(#SVGID_00000164515364053700127640000014478872092797752760_);stroke:url(#SVGID_00000114054554070978079550000014882162736283640710_);stroke-width:0.7147;stroke-miterlimit:10;}
	
		.st116{fill:url(#SVGID_00000018221508197850754710000015147109257231771064_);stroke:url(#SVGID_00000057126257681078753290000002130325912627442877_);stroke-width:0.7147;stroke-miterlimit:10;}
	
		.st117{fill:url(#SVGID_00000139975036025897183210000003283792709801030272_);stroke:url(#SVGID_00000041995046492834307360000006717724351440596414_);stroke-width:0.7147;stroke-miterlimit:10;}
	
		.st118{fill:url(#SVGID_00000133495945469297632330000004729466637523794085_);stroke:url(#SVGID_00000107549835526750408080000003546922937725470613_);stroke-width:0.7147;stroke-miterlimit:10;}
	
		.st119{fill:url(#SVGID_00000101822637377145806500000009401295797617693091_);stroke:url(#SVGID_00000147935106715338667680000000091446087069107644_);stroke-width:0.7147;stroke-miterlimit:10;}
	
		.st120{fill:url(#SVGID_00000008837929445314355840000015818237466117814187_);stroke:url(#SVGID_00000138572526980146928340000003549005752716005309_);stroke-width:0.7147;stroke-miterlimit:10;}
	
		.st121{fill:url(#SVGID_00000026852334848531229580000001542536286356784023_);stroke:url(#SVGID_00000137849894149578672720000009165198998282572437_);stroke-width:0.7147;stroke-miterlimit:10;}
	
		.st122{fill:url(#SVGID_00000114042414908544211730000013793136971969067437_);stroke:url(#SVGID_00000075139724844058887780000016437065902401648309_);stroke-width:0.7147;stroke-miterlimit:10;}
	
		.st123{fill:url(#SVGID_00000173879764899394256370000006089787731765137594_);stroke:url(#SVGID_00000068668547167319272720000003863128251821504153_);stroke-width:0.7147;stroke-miterlimit:10;}
	
		.st124{fill:url(#SVGID_00000061439121871848311290000000304879913378402229_);stroke:url(#SVGID_00000119805256104440175490000013391870260019050117_);stroke-width:0.7147;stroke-miterlimit:10;}
	
		.st125{fill:url(#SVGID_00000139255518004695120120000016547585163119449771_);stroke:url(#SVGID_00000145737894779104030010000013738385681636850093_);stroke-width:0.7147;stroke-miterlimit:10;}
	
		.st126{fill:url(#SVGID_00000045607277489403652200000002292040217666592188_);stroke:url(#SVGID_00000092435682641174352490000000506133386494309250_);stroke-width:0.7147;stroke-miterlimit:10;}
	
		.st127{fill:url(#SVGID_00000129187144921380745850000015828477178732974473_);stroke:url(#SVGID_00000020375695071481686250000004149296405913502360_);stroke-width:0.7147;stroke-miterlimit:10;}
	
		.st128{fill:url(#SVGID_00000179634009337598789070000010983393640633288601_);stroke:url(#SVGID_00000054966410290549301890000010744162322738717090_);stroke-width:0.7147;stroke-miterlimit:10;}
	
		.st129{fill:url(#SVGID_00000168085860552495210700000012153016434960689834_);stroke:url(#SVGID_00000021818154496906687590000004611976925962044568_);stroke-width:0.7147;stroke-miterlimit:10;}
	
		.st130{fill:url(#SVGID_00000013192307186044965330000001111075987283717791_);stroke:url(#SVGID_00000170992619096725093350000009573329023569125055_);stroke-width:0.7147;stroke-miterlimit:10;}
	
		.st131{fill:url(#SVGID_00000141427747137323780290000007233379536568713631_);stroke:url(#SVGID_00000172404085589452707960000000803732448656015524_);stroke-width:0.7147;stroke-miterlimit:10;}
	
		.st132{fill:url(#SVGID_00000176764021602430437020000009791192196076385945_);stroke:url(#SVGID_00000031925534911680499760000016744476775974406552_);stroke-width:0.7147;stroke-miterlimit:10;}
	
		.st133{fill:url(#SVGID_00000062191724884437362470000013699047815513032333_);stroke:url(#SVGID_00000054263639574569825350000014501532306741042311_);stroke-width:0.7147;stroke-miterlimit:10;}
	
		.st134{fill:url(#SVGID_00000089537908675549808860000017522763996311349929_);stroke:url(#SVGID_00000120539589842908062680000007409627211537700285_);stroke-width:0.7147;stroke-miterlimit:10;}
	
		.st135{fill:url(#SVGID_00000119110339606904364690000012930923417731995542_);stroke:url(#SVGID_00000156581928195784219330000010919635852343806122_);stroke-width:0.7147;stroke-miterlimit:10;}
	
		.st136{fill:url(#SVGID_00000034792845483540636930000006929898428981019268_);stroke:url(#SVGID_00000024003904126723420700000010917951204867103121_);stroke-width:0.7147;stroke-miterlimit:10;}
	
		.st137{fill:none;stroke:url(#SVGID_00000112604194612731285590000008736389392244544686_);stroke-width:7.8616;stroke-linecap:round;stroke-linejoin:round;stroke-miterlimit:10;}
	
		.st138{fill:none;stroke:url(#SVGID_00000124122691566239784900000010505720487403223185_);stroke-width:7.8616;stroke-linecap:round;stroke-linejoin:round;stroke-miterlimit:10;}
	
		.st139{fill:none;stroke:url(#SVGID_00000118385748825278789300000008670801994310628250_);stroke-width:7.8616;stroke-linecap:round;stroke-linejoin:round;stroke-miterlimit:10;}
	
		.st140{fill:none;stroke:url(#SVGID_00000154404455061174786950000014610207270977645196_);stroke-width:5.0028;stroke-linecap:round;stroke-linejoin:round;stroke-miterlimit:10;}
	
		.st141{fill:none;stroke:url(#SVGID_00000029032390402554885190000011648191742126931619_);stroke-width:7.8616;stroke-linecap:round;stroke-linejoin:round;stroke-miterlimit:10;}
	
		.st142{fill:none;stroke:url(#SVGID_00000172435122497666735870000008603305839428643737_);stroke-width:7.8616;stroke-linecap:round;stroke-linejoin:round;stroke-miterlimit:10;}
	
		.st143{fill:none;stroke:url(#SVGID_00000149350721022798335760000004564415495962958721_);stroke-width:7.8616;stroke-linecap:round;stroke-linejoin:round;stroke-miterlimit:10;}
	
		.st144{fill:none;stroke:url(#SVGID_00000030487583505212635380000009829771169201342886_);stroke-width:7.8616;stroke-linecap:round;stroke-linejoin:round;stroke-miterlimit:10;}
	
		.st145{fill:none;stroke:url(#SVGID_00000082332573674271954290000017538887600046210984_);stroke-width:7.8616;stroke-linecap:round;stroke-linejoin:round;stroke-miterlimit:10;}
	
		.st146{fill:none;stroke:url(#SVGID_00000114067981205910977230000009019932844492657546_);stroke-width:7.8616;stroke-linecap:round;stroke-linejoin:round;stroke-miterlimit:10;}
	
		.st147{fill:none;stroke:url(#SVGID_00000139295609181999678250000002639513500551134638_);stroke-width:4.2881;stroke-linecap:round;stroke-linejoin:round;stroke-miterlimit:10;}
	
		.st148{fill:none;stroke:url(#SVGID_00000034811018155039483470000008481683443296734350_);stroke-width:4.2881;stroke-linecap:round;stroke-linejoin:round;stroke-miterlimit:10;}
	
		.st149{fill:none;stroke:url(#SVGID_00000178167052030844773730000015904740114460409743_);stroke-width:4.2881;stroke-linecap:round;stroke-linejoin:round;stroke-miterlimit:10;}
	
		.st150{fill:none;stroke:url(#SVGID_00000049182284272202538630000015658848902845230765_);stroke-width:4.2881;stroke-linecap:round;stroke-linejoin:round;stroke-miterlimit:10;}
	
		.st151{fill:none;stroke:url(#SVGID_00000114064409935438309930000014338180583097054107_);stroke-width:7.8616;stroke-linecap:round;stroke-linejoin:round;stroke-miterlimit:10;}
	
		.st152{fill:none;stroke:url(#SVGID_00000043433698307856112600000016834125517218764223_);stroke-width:7.8616;stroke-linecap:round;stroke-linejoin:round;stroke-miterlimit:10;}
	
		.st153{fill:none;stroke:url(#SVGID_00000072999030443045081720000005436591460040623267_);stroke-width:13.5791;stroke-linecap:round;stroke-linejoin:round;stroke-miterlimit:10;}
	
		.st154{fill:none;stroke:url(#SVGID_00000016034575333133495440000002224437420772169643_);stroke-width:17.8673;stroke-linecap:round;stroke-linejoin:round;stroke-miterlimit:10;}
	
		.st155{fill:none;stroke:url(#SVGID_00000148632928360104925710000013777311266655136937_);stroke-width:7.8616;stroke-linecap:round;stroke-linejoin:round;stroke-miterlimit:10;}
	
		.st156{fill:none;stroke:url(#SVGID_00000162329579816912973960000013830754477872882064_);stroke-width:7.8616;stroke-linecap:round;stroke-linejoin:round;stroke-miterlimit:10;}
	
		.st157{fill:none;stroke:url(#SVGID_00000013159829552876764550000002203419091985812402_);stroke-width:7.8616;stroke-linecap:round;stroke-linejoin:round;stroke-miterlimit:10;}
	.st158{fill:url(#SVGID_00000047757850765363310960000014052831922935211148_);}
	.st159{fill:#FFFFFF;}
	.st160{fill:#D5DCE2;}
	.st161{fill:#9FA1AA;}
	.st162{fill:#F2F2F2;}
	.st163{fill:#0F6850;}
	.st164{fill:#4FBF13;}
	.st165{fill:#B1FF66;}
	.st166{fill:#636363;}
	.st167{fill:#48487C;}
	.st168{fill:#A0A0EA;}
	.st169{fill:#B3DD78;}
	.st170{fill:#7E9E4C;}
	.st171{fill:#AAAAAA;}
	.st172{fill:#939393;}
	.st173{fill:none;stroke:#1D1D1B;stroke-width:0.5965;stroke-miterlimit:10;}
	.st174{fill:#5E5E5E;}
	.st175{fill:#FFED69;}
	.st176{opacity:0.45;fill:#5E5E5E;}
	.st177{fill:#A0A0A0;}
	.st178{fill:none;stroke:#B1BEC4;stroke-width:0.2848;stroke-miterlimit:10;}
	.st179{fill:#E0F495;}
	.st180{fill:none;stroke:#B1BEC4;stroke-width:0.5969;stroke-miterlimit:10;}
	.st181{fill:#F4F1EA;}
	.st182{opacity:0.45;}
	.st183{opacity:0.5;fill:#23395B;}
	.st184{opacity:0.2;fill:#23395B;}
	.st185{fill:#23395B;}
	.st186{fill:#202656;}
	.st187{fill:#FFEC40;}
	.st188{fill:#3D3D3D;}
	.st189{fill:#00BCBC;}
	.st190{fill:#ED3A83;}
	.st191{fill:url(#SVGID_00000118398209950778235430000011767254016694959246_);}
	.st192{clip-path:url(#SVGID_00000175319907539095893710000015833688308577592206_);}
	.st193{fill:none;stroke:#FFD1C5;stroke-width:0.5;stroke-miterlimit:10;}
	.st194{fill:#454D60;}
	.st195{fill:#3B4556;}
	.st196{fill:#FF8B00;}
	.st197{fill:#FF6700;}
	.st198{fill:none;stroke:#1D1E1C;stroke-width:4.647;stroke-linejoin:round;stroke-miterlimit:10;}
	.st199{fill:#B3BCC9;}
	.st200{fill:#CAD2E0;}
	.st201{fill:#EDF1F7;}
	.st202{fill:#A9B3BF;}
	.st203{fill:#9EABBA;}
	.st204{fill:none;stroke:#282828;stroke-width:2.7258;stroke-linecap:round;stroke-linejoin:round;stroke-miterlimit:10;}
	.st205{fill:none;stroke:#CAD2E0;stroke-width:0.5452;stroke-miterlimit:10;}
	.st206{fill:none;stroke:#282828;stroke-width:2.1806;stroke-linecap:round;stroke-linejoin:round;stroke-miterlimit:10;}
	.st207{fill:#EBEBEB;}
	.st208{fill:#EA800F;}
	.st209{fill:#FFDD1A;}
	.st210{fill:#1D1E1C;}
	.st211{fill:#A81927;}
	.st212{fill:#D51024;}
	.st213{fill:#FFE577;}
	.st214{fill:none;}
	.st215{fill:#DBDBDB;}
	.st216{fill:#DADADA;}
	.st217{fill:none;stroke:#FFFFFF;stroke-width:0.9152;stroke-linecap:round;stroke-miterlimit:10;}
	.st218{fill:none;stroke:#282828;stroke-width:2.6088;stroke-linecap:round;stroke-linejoin:round;stroke-miterlimit:10;}
	.st219{fill:none;stroke:#CAD2E0;stroke-width:0.5218;stroke-miterlimit:10;}
	.st220{fill:none;stroke:#282828;stroke-width:2.087;stroke-linecap:round;stroke-linejoin:round;stroke-miterlimit:10;}
	.st221{fill:none;stroke:#FFFFFF;stroke-width:0.8759;stroke-linecap:round;stroke-miterlimit:10;}
	.st222{fill:#F7F7F7;}
	.st223{fill:#282828;}
	.st224{fill:none;stroke:#FFFFFF;stroke-width:1.1001;stroke-linecap:round;stroke-miterlimit:10;}
	.st225{fill:none;stroke:#FFFFFF;stroke-width:1.0652;stroke-linecap:round;stroke-miterlimit:10;}
	.st226{fill:#9E9E9E;}
	.st227{fill:none;stroke:#FFFFFF;stroke-width:1.4992;stroke-linecap:round;stroke-miterlimit:10;}
</style>
<g>
	<rect y="0" class="st187" width="850" height="600"/>
</g>
<g>
	<path class="st188" d="M409.82,265.77c0,38.57,31.25,69.84,69.79,69.84V195.92C441.07,195.92,409.82,227.2,409.82,265.77z
		 M340.04,265.77c0,38.57,31.25,69.84,69.78,69.84V195.92C371.29,195.92,340.04,227.2,340.04,265.77z M550.83,368.46
		c-2.12-1.9-5.07-2.86-8.74-2.86h-15.86v37.85h4.04v-16.7h11.82c3.67,0,6.61-0.96,8.74-2.87c2.15-1.93,3.25-4.53,3.25-7.73
		C554.08,372.97,552.98,370.38,550.83,368.46z M548,381.11c-1.41,1.17-3.46,1.77-6.11,1.77h-11.62v-13.4h11.62
		c2.65,0,4.7,0.6,6.11,1.77c1.38,1.15,2.05,2.76,2.05,4.9C550.05,378.34,549.38,379.96,548,381.11z M513.19,370.62
		c-3.62-3.73-8.13-5.63-13.41-5.63c-5.3,0-9.82,1.9-13.45,5.64c-3.55,3.73-5.35,8.4-5.35,13.9c0,5.57,1.8,10.27,5.35,13.97
		c3.59,3.7,8.12,5.57,13.45,5.57c5.3,0,9.82-1.87,13.41-5.57c3.59-3.69,5.4-8.39,5.4-13.97C518.59,379,516.77,374.32,513.19,370.62z
		 M510.23,395.71c-2.86,3-6.28,4.45-10.46,4.45c-4.17,0-7.58-1.45-10.45-4.45c-2.83-3-4.26-6.75-4.26-11.17
		c0-4.45,1.44-8.2,4.26-11.16c2.87-3,6.29-4.45,10.45-4.45c4.18,0,7.6,1.45,10.46,4.45c2.84,2.96,4.28,6.71,4.28,11.16
		C514.51,388.95,513.07,392.71,510.23,395.71z M449.51,365.61v3.88h12.96v33.97h4.04v-33.97h12.97v-3.88H449.51z M439.54,365.61
		v37.85h4.04v-37.85H439.54z M426.79,381.07v15.28c-2.58,2.52-6.14,3.8-10.6,3.8c-4.15,0-7.71-1.48-10.57-4.4
		c-2.86-2.9-4.31-6.64-4.31-11.16c0-4.55,1.45-8.32,4.31-11.21c2.86-2.96,6.46-4.45,10.72-4.45c4.12,0,7.87,1.29,11.12,3.86
		l1.34,1.06v-4.64l-0.31-0.25c-3.31-2.62-7.44-3.95-12.3-3.95c-5.38,0-9.92,1.89-13.51,5.59c-3.62,3.73-5.46,8.43-5.46,13.96
		c0,5.59,1.84,10.3,5.46,14.03c3.59,3.66,8.13,5.52,13.51,5.52c5.94,0,10.78-2,14.41-5.95l0.21-0.24v-16.82H426.79z M386.39,381.07
		v15.28c-2.58,2.52-6.14,3.8-10.6,3.8c-4.15,0-7.71-1.48-10.57-4.4c-2.86-2.9-4.31-6.64-4.31-11.16c0-4.55,1.45-8.32,4.31-11.21
		c2.86-2.96,6.46-4.45,10.72-4.45c4.12,0,7.87,1.29,11.12,3.86l1.34,1.06v-4.64l-0.31-0.25c-3.31-2.62-7.44-3.95-12.3-3.95
		c-5.38,0-9.92,1.89-13.51,5.59c-3.62,3.73-5.46,8.43-5.46,13.96c0,5.59,1.84,10.3,5.46,14.03c3.59,3.66,8.13,5.52,13.51,5.52
		c5.94,0,10.78-2,14.41-5.95l0.21-0.24v-16.82H386.39z M330.54,399.59v-14.48h18.03v-3.88h-18.03v-11.74h21.8v-3.88H326.5v37.85
		h26.67v-3.87H330.54z M299.96,399.59v-33.98h-4.04v37.85h25.06v-3.87H299.96z"/>
</g>
<g>
	<path class="st189" d="M850,72.21v6.51l-3.68-2.53C847.37,74.66,848.62,73.35,850,72.21z"/>
</g>
<g>
	<path class="st190" d="M151.5,474.47l-13.55-9.32c4.57-6.65,12.75-9.18,19.98-11.42c4.2-1.3,9.96-3.09,11.3-5.03
		c1.34-1.94,0.94-7.96,0.65-12.35c-0.5-7.54-1.06-16.1,3.51-22.74c4.57-6.65,12.75-9.18,19.98-11.42c4.2-1.3,9.96-3.09,11.3-5.03
		l13.55,9.32c-4.57,6.65-12.75,9.18-19.98,11.42c-4.2,1.3-9.96,3.09-11.3,5.03c-1.34,1.94-0.94,7.96-0.65,12.35
		c0.5,7.54,1.06,16.1-3.51,22.74c-4.57,6.65-12.75,9.18-19.98,11.42C158.59,470.74,152.84,472.53,151.5,474.47z"/>
</g>
<g>
	<path class="st189" d="M49.27,556.91c-4.59,6.65-12.8,9.19-20.05,11.43c-4.2,1.3-9.96,3.08-11.3,5.02
		c-1.33,1.93-0.94,7.94-0.65,12.32c0.3,4.62,0.63,9.61-0.22,14.32H0v-0.77c0.04-0.05,0.08-0.09,0.11-0.14
		c1.34-1.93,0.94-7.94,0.65-12.32c-0.49-7.55-1.05-16.11,3.53-22.76c4.59-6.66,12.8-9.2,20.05-11.44c4.2-1.3,9.96-3.08,11.3-5.02
		L49.27,556.91z"/>
</g>
<g>
	<path class="st189" d="M433.3,571.99c-6.89-4.22-9.86-12.26-12.48-19.36c-1.52-4.12-3.61-9.77-5.61-10.99
		c-2.01-1.23-7.98-0.51-12.34,0.01c-7.51,0.9-16.03,1.91-22.91-2.31c-6.89-4.22-9.86-12.26-12.48-19.36
		c-1.52-4.12-3.61-9.77-5.61-10.99l8.62-14.08c6.89,4.22,9.86,12.26,12.48,19.36c1.52,4.12,3.61,9.77,5.61,11
		c2,1.23,7.98,0.51,12.34-0.01c7.51-0.89,16.03-1.91,22.91,2.31c6.89,4.22,9.86,12.26,12.48,19.36c1.52,4.12,3.61,9.77,5.61,11
		L433.3,571.99z"/>
</g>
<g>
	<path class="st190" d="M850,265.76v13.78c-2.36,2.07-4.93,3.91-7.37,5.66c-3.58,2.56-8.48,6.07-9.13,8.34
		c-0.66,2.26,1.61,7.84,3.27,11.92c2.84,7.01,6.07,14.94,3.83,22.69c-2.25,7.75-9.22,12.73-15.36,17.13
		c-3.58,2.56-8.48,6.07-9.14,8.34l-15.8-4.58c2.25-7.74,9.22-12.73,15.37-17.13c3.57-2.56,8.47-6.07,9.13-8.33
		c0.66-2.27-1.61-7.85-3.27-11.93c-2.85-7-6.07-14.94-3.83-22.69c2.24-7.74,9.21-12.73,15.36-17.13c3.58-2.56,8.48-6.07,9.14-8.33
		L850,265.76z"/>
</g>
<g>
	<path class="st190" d="M463.25,15.34c-8.09,0.41-15.06-4.49-21.25-8.83c-3.6-2.53-8.51-6.03-10.88-5.87
		c-2.36,0.13-6.88,4.12-10.18,7.03c-5.67,5.01-12.09,10.68-20.14,11.12c-0.35,0.02-0.69,0.03-1.02,0.03
		c-7.63,0-14.31-4.69-20.23-8.86c-3.6-2.53-8.49-6.03-10.89-5.86L368.43,0h25.73c2.26,1.41,4.39,2.47,5.73,2.37
		c1.14-0.06,2.8-1.05,4.59-2.37h57.92L463.25,15.34z"/>
</g>
<g>
	<path class="st189" d="M3.28,77.39c-1.07,4.26-2.54,10.1-1.56,12.25L0,90.41V48.73c1.57,1.64,2.9,3.5,3.87,5.64
		C7.2,61.73,5.11,70.05,3.28,77.39z"/>
</g>
<g>
	<circle class="st190" cx="178.08" cy="235.99" r="20.43"/>
</g>
<g>
	<ellipse class="st190" cx="9.02" cy="444.25" rx="8.46" ry="8.44"/>
</g>
<g>
	<circle class="st189" cx="550.06" cy="85.53" r="8.44"/>
</g>
<g>
	<g>
		<path class="st188" d="M635.16,150.78l-13.63-9.35c4.59-6.65,12.8-9.19,20.04-11.43c4.21-1.3,9.97-3.08,11.3-5.02
			c1.33-1.93,0.94-7.94,0.65-12.33c-0.49-7.55-1.06-16.11,3.53-22.76c4.59-6.65,12.79-9.19,20.04-11.43
			c4.21-1.3,9.97-3.08,11.3-5.02l13.63,9.35c-4.59,6.65-12.79,9.19-20.04,11.43c-4.21,1.3-9.97,3.08-11.3,5.02
			c-1.33,1.94-0.94,7.94-0.65,12.33c0.49,7.55,1.06,16.11-3.53,22.76c-4.59,6.65-12.79,9.19-20.04,11.43
			C642.26,147.06,636.5,148.85,635.16,150.78z"/>
	</g>
	<g>
		<path class="st188" d="M646.59,520.45c-6.67-4.58-9.21-12.77-11.46-20c-1.3-4.2-3.09-9.95-5.03-11.28
			c-1.94-1.33-7.96-0.94-12.35-0.65c-7.57,0.5-16.14,1.05-22.81-3.52c-6.67-4.58-9.21-12.77-11.46-19.99
			c-1.3-4.2-3.09-9.95-5.03-11.28l9.38-13.6c6.67,4.58,9.21,12.77,11.46,19.99c1.3,4.2,3.09,9.95,5.03,11.28
			c1.94,1.33,7.96,0.94,12.35,0.65c7.57-0.5,16.14-1.06,22.81,3.52c6.67,4.58,9.21,12.77,11.46,19.99c1.3,4.2,3.09,9.95,5.03,11.28
			L646.59,520.45z"/>
	</g>
	<g>
		<path class="st188" d="M823.31,600h-51.6c2.89-4.95,6.45-9.62,11.83-12.03c7.38-3.31,15.72-1.22,23.07,0.62
			c4.27,1.07,10.12,2.53,12.27,1.57L823.31,600z"/>
	</g>
	<g>
		<path class="st188" d="M11.32,268.08C9.56,274.15,4.9,278.52,0,282.24v-17.43L11.32,268.08z"/>
	</g>
	<g>
		<path class="st188" d="M238.83,152.27c-6.67-4.58-9.21-12.77-11.46-19.99c-1.3-4.2-3.09-9.95-5.03-11.28
			c-1.94-1.33-7.96-0.94-12.36-0.65c-7.57,0.49-16.15,1.05-22.81-3.52c-6.67-4.58-9.21-12.77-11.46-19.99
			c-1.3-4.2-3.09-9.95-5.03-11.28l9.38-13.6c6.67,4.58,9.21,12.77,11.46,19.99c1.3,4.2,3.09,9.95,5.03,11.28
			c1.94,1.33,7.96,0.94,12.35,0.65c7.57-0.49,16.14-1.06,22.81,3.52c6.67,4.58,9.21,12.77,11.46,19.99c1.3,4.2,3.09,9.95,5.03,11.28
			L238.83,152.27z"/>
	</g>
	<g>
		<ellipse class="st188" cx="248.21" cy="564.31" rx="15.96" ry="15.92"/>
	</g>
	<g>
		<ellipse class="st188" cx="117.83" cy="29.69" rx="16.6" ry="16.56"/>
	</g>
</g>
<g>
	<circle class="st189" cx="705.35" cy="256.42" r="16.56"/>
</g>
<g>
	<circle class="st190" cx="765.39" cy="474.47" r="16.56"/>
</g>
<g>
	<defs>
		<rect id="SVGID_00000175322574590925213920000016424479153922484924_" x="908.03" y="654.88" width="852.02" height="600.05"/>
	</defs>
	<clipPath id="SVGID_00000012469999517312980980000016817130793147387546_">
		<use xlink:href="#SVGID_00000175322574590925213920000016424479153922484924_"  style="overflow:visible;"/>
	</clipPath>
	<g style="clip-path:url(#SVGID_00000012469999517312980980000016817130793147387546_);">
		<g>
			<polyline class="st193" points="205.47,587.39 260.69,583.4 279.61,571.99 368.07,575.42 417.28,587.39 498.96,599.37 			"/>
			<path class="st193" d="M206.5,599.37l59.31-2.95l24.03-11.88l84.19,1.57l46.04,7.84c3.61-1.52,75.28,6.94,78.89,5.42"/>
			<path class="st193" d="M207.52,611.34l63.4-1.9l29.14-12.36L380,596.8l42.86,3.71c7.21-3.04,68.88,1.9,76.1-1.14"/>
			<path class="st193" d="M208.54,623.32l67.49-0.86l34.26-12.83l75.67-2.14l39.69-0.43c10.82-4.56,62.49-3.14,73.31-7.7"/>
			<path class="st193" d="M209.56,635.29l71.58,0.19l39.37-13.31l71.41-3.99l36.52-4.56c14.43-6.08,56.09-8.17,70.52-14.26"/>
			<path class="st193" d="M210.59,647.27l75.67,1.24l44.48-13.78l67.15-5.84l33.34-8.7c18.04-7.6,49.69-13.21,67.73-20.81"/>
			<path class="st193" d="M211.61,659.24l79.76,2.28l49.6-14.26l62.89-7.7l30.17-12.83c21.64-9.12,43.29-18.25,64.94-27.37"/>
		</g>
	</g>
</g>
</svg>
