<?xml version="1.0" encoding="utf-8"?>
<!-- Generator: Adobe Illustrator 26.0.2, SVG Export Plug-In . SVG Version: 6.00 Build 0)  -->
<svg version="1.1" id="Шар_1" xmlns="http://www.w3.org/2000/svg" xmlns:xlink="http://www.w3.org/1999/xlink" x="0px" y="0px"
	 viewBox="0 0 100 100" style="enable-background:new 0 0 100 100;" xml:space="preserve">
<style type="text/css">
	.st0{fill:#F7F7F6;}
	.st1{fill:#222323;}
	.st2{fill:#EEEEEF;}
		.st3{clip-path:url(#SVGID_00000163050862818984705370000001222788731658750348_);fill:url(#SVGID_00000115512884825400754490000006104378865945038732_);}
	.st4{opacity:0.53;}
	.st5{fill:#44BDDB;}
	.st6{fill:#FFE94E;}
	.st7{fill:#FFFFFF;}
	.st8{fill:#2B2B2B;}
	.st9{fill:#252384;}
	.st10{fill:#F3DC06;}
	.st11{fill:#333333;}
	.st12{fill:#484747;}
	.st13{fill:#8714C9;}
	.st14{fill:#1E1D1D;}
	.st15{fill:#E31313;}
	.st16{fill:#1D1D1B;}
	.st17{fill:#FFD900;}
	.st18{fill:#3F3F3F;}
	.st19{fill:#F4F4F4;}
</style>
<path class="st19" d="M71.04,0H28.96C13.02,0,0,13.03,0,28.96v42.09C0,86.98,13.02,100,28.96,100h42.09
	C86.98,100,100,86.98,100,71.04V28.96C100,13.03,86.98,0,71.04,0z M50,73.07c-12.75,0-23.07-10.32-23.07-23.07
	c0-12.73,10.32-23.07,23.07-23.07c12.73,0,23.07,10.34,23.07,23.07C73.07,62.75,62.73,73.07,50,73.07z M77.3,25.71
	c-3.72,0-6.74-3.02-6.74-6.74s3.02-6.74,6.74-6.74s6.74,3.03,6.74,6.74S81.01,25.71,77.3,25.71z"/>
</svg>
