<?xml version="1.0" encoding="utf-8"?>
<!-- Generator: Adobe Illustrator 26.0.2, SVG Export Plug-In . SVG Version: 6.00 Build 0)  -->
<svg version="1.1" id="Шар_1" xmlns="http://www.w3.org/2000/svg" xmlns:xlink="http://www.w3.org/1999/xlink" x="0px" y="0px"
	 viewBox="0 0 18.7 18.7" style="enable-background:new 0 0 18.7 18.7;" xml:space="preserve">
<style type="text/css">
	.st0{fill:#EAADC2;}
</style>
<g>
	<g>
		<g>
			<rect x="7.1" y="5.5" transform="matrix(0.707 -0.7072 0.7072 0.707 -3.213 7.7447)" class="st0" width="1.3" height="4.5"/>
		</g>
		<g>
			
				<rect x="10.3" y="8.7" transform="matrix(0.7071 -0.7071 0.7071 0.7071 -4.5386 10.9428)" class="st0" width="1.3" height="4.5"/>
		</g>
		<g>
			<rect x="8.7" y="7.1" transform="matrix(0.7071 -0.7071 0.7071 0.7071 -2.276 10.0058)" class="st0" width="4.5" height="1.3"/>
		</g>
		<g>
			<rect x="5.5" y="10.3" transform="matrix(0.7071 -0.7071 0.7071 0.7071 -5.4756 8.6803)" class="st0" width="4.5" height="1.3"/>
		</g>
	</g>
	<g>
		<path class="st0" d="M9.4,18.7C4.2,18.7,0,14.5,0,9.4S4.2,0,9.4,0s9.4,4.2,9.4,9.4S14.5,18.7,9.4,18.7z M9.4,1.3
			c-4.5,0-8.1,3.6-8.1,8.1s3.6,8.1,8.1,8.1s8.1-3.6,8.1-8.1C17.4,4.9,13.8,1.3,9.4,1.3z"/>
	</g>
</g>
</svg>
