<?xml version="1.0" encoding="utf-8"?>
<!-- Generator: Adobe Illustrator 26.0.2, SVG Export Plug-In . SVG Version: 6.00 Build 0)  -->
<svg version="1.1" id="Шар_1" xmlns="http://www.w3.org/2000/svg" xmlns:xlink="http://www.w3.org/1999/xlink" x="0px" y="0px"
	 viewBox="0 0 227.91 80.01" style="enable-background:new 0 0 227.91 80.01;" xml:space="preserve">
<style type="text/css">
	.st0{fill:#F4F4F4;}
</style>
<g>
	<polygon class="st0" points="55.82,30.46 46.28,30.46 46.28,1.83 36.74,1.83 36.74,78.17 46.28,78.17 46.28,40 55.82,40 55.82,78.17 65.37,78.17 65.37,1.83 55.82,1.83 	"/>
	<rect x="105.96" y="1.83" class="st0" width="9.54" height="76.34"/>
	<polygon class="st0" points="74.53,1.84 74.53,78.18 94.7,78.18 98.39,78.18 98.39,68.63 94.7,68.63 84.08,68.63 84.08,40.01 94.7,40.01 94.7,30.46 84.08,30.46 84.08,11.38 94.7,11.38 98.39,11.38 98.39,1.84 94.7,1.84 	"/>
	<path class="st0" d="M24.42,4.91c-1.24-1.24-2.7-2.25-4.31-2.97c-0.33-0.15-0.68-0.29-1.02-0.4l0,0c-0.89-0.32-1.82-0.55-2.78-0.68
		c-0.65-0.09-1.31-0.14-1.99-0.14s-1.34,0.05-1.99,0.14c-0.96,0.13-1.89,0.36-2.78,0.68l0,0C9.2,1.65,8.85,1.79,8.52,1.94
		C4.56,3.7,1.54,7.22,0.44,11.48C0.16,12.61,0,13.8,0,15.02v11.59c0,1.14,0.13,2.24,0.39,3.3c0.05,0.22,0.11,0.44,0.17,0.65
		c0.01,0.01,0.01,0.03,0.01,0.04c0.13,0.46,0.29,0.9,0.47,1.34c0.26,0.66,0.57,1.29,0.94,1.89c0.23,0.41,0.49,0.8,0.77,1.18
		c0.05,0.07,0.11,0.14,0.16,0.21c1.67,2.21,3.98,3.92,6.63,4.87c0,0,0,0,0,0c0.01,0,0.02,0.01,0.03,0.01h0.04
		c1.48,0.52,3.06,0.8,4.7,0.8c2.2,0,4.09,1.43,4.77,3.41c0,0,0,0.01,0,0.01c0.18,0.51,0.27,1.06,0.27,1.62v18.58
		c0,0.57-0.1,1.12-0.28,1.64c-0.36,1.05-1.06,1.94-1.96,2.56c-0.26,0.17-0.53,0.32-0.82,0.44c-0.61,0.27-1.28,0.42-1.98,0.42
		c-0.7,0-1.37-0.15-1.98-0.42c-0.29-0.12-0.56-0.27-0.82-0.44c-0.9-0.61-1.6-1.51-1.96-2.56c0,0,0-0.01,0-0.01
		c-0.18-0.51-0.27-1.06-0.27-1.62V49.65H0v15.34c0,1.29,0.17,2.55,0.5,3.75c1.19,4.35,4.38,7.88,8.52,9.54
		c1.64,0.66,3.43,1.02,5.3,1.02c1.87,0,3.66-0.36,5.3-1.02c4.13-1.66,7.33-5.2,8.52-9.54c0.33-1.19,0.5-2.45,0.5-3.75V43.41
		c0-1.14-0.13-2.24-0.39-3.3c-0.05-0.22-0.11-0.44-0.17-0.65c0-0.01-0.01-0.03-0.01-0.04c-0.13-0.46-0.29-0.91-0.47-1.34
		c-0.26-0.66-0.57-1.29-0.94-1.89c-0.23-0.41-0.49-0.8-0.77-1.18c-0.05-0.07-0.11-0.14-0.16-0.21c-1.67-2.21-3.98-3.92-6.63-4.87
		c0,0,0,0,0,0c-0.01,0-0.02-0.01-0.03-0.01h-0.04c-1.48-0.52-3.06-0.8-4.7-0.8c-2.2,0-4.09-1.43-4.77-3.41c0,0,0-0.01,0-0.01
		c-0.18-0.51-0.27-1.06-0.27-1.62v-8.57c0-0.57,0.09-1.11,0.27-1.62c0,0,0-0.01,0-0.01c0.33-0.95,0.93-1.77,1.71-2.37
		c0.85-0.65,1.91-1.04,3.06-1.04c1.15,0,2.21,0.39,3.06,1.04c0.18,0.13,0.35,0.28,0.51,0.44c0.54,0.54,0.95,1.19,1.2,1.93
		c0.18,0.51,0.28,1.07,0.28,1.64v4.88h9.27v-5.36c0-1.22-0.16-2.4-0.44-3.54C27.54,8.96,26.21,6.7,24.42,4.91z"/>
	<polygon class="st0" points="180.91,30.46 171.36,30.46 171.36,1.83 161.82,1.83 161.82,78.17 171.36,78.17 171.36,40 180.91,40 180.91,78.17 190.45,78.17 190.45,1.83 180.91,1.83 	"/>
	<path class="st0" d="M227.35,39.46c0-0.01-0.01-0.03-0.01-0.04c-0.13-0.46-0.29-0.91-0.47-1.34c-0.26-0.66-0.57-1.29-0.94-1.89
		c-0.23-0.41-0.49-0.8-0.77-1.18c-0.05-0.07-0.11-0.14-0.16-0.21c-1.67-2.21-3.98-3.92-6.63-4.87c0,0,0,0,0,0
		c-0.01,0-0.02-0.01-0.03-0.01h-0.04c-1.48-0.52-3.06-0.8-4.7-0.8c-2.2,0-4.09-1.43-4.77-3.41c0,0,0-0.01,0-0.01
		c-0.18-0.51-0.27-1.06-0.27-1.62v-8.57c0-0.57,0.09-1.11,0.27-1.62c0,0,0-0.01,0-0.01c0.33-0.95,0.93-1.77,1.71-2.37
		c0.85-0.65,1.91-1.04,3.06-1.04c1.15,0,2.21,0.39,3.06,1.04c0.18,0.13,0.35,0.28,0.51,0.44c0.54,0.54,0.95,1.19,1.2,1.93
		c0.18,0.51,0.28,1.07,0.28,1.64v4.88h9.27v-5.36c0-1.22-0.16-2.4-0.44-3.54c-0.65-2.52-1.97-4.78-3.76-6.57
		c-1.24-1.24-2.7-2.25-4.31-2.97c-0.33-0.15-0.68-0.29-1.02-0.4l0,0c-0.89-0.32-1.82-0.55-2.78-0.68c-0.65-0.09-1.31-0.14-1.99-0.14
		c-0.68,0-1.34,0.05-1.99,0.14c-0.96,0.13-1.89,0.36-2.78,0.68l0,0c-0.34,0.12-0.69,0.25-1.02,0.4c-3.96,1.76-6.98,5.28-8.08,9.54
		c-0.29,1.13-0.44,2.32-0.44,3.54v11.59c0,1.14,0.13,2.24,0.39,3.3c0.05,0.22,0.11,0.44,0.17,0.65c0.01,0.01,0.01,0.03,0.01,0.04
		c0.13,0.46,0.29,0.9,0.47,1.34c0.26,0.66,0.57,1.29,0.94,1.89c0.23,0.41,0.49,0.8,0.77,1.18c0.05,0.07,0.11,0.14,0.16,0.21
		c1.67,2.21,3.98,3.92,6.63,4.87c0,0,0,0,0,0c0.01,0,0.02,0.01,0.03,0.01h0.04c1.48,0.52,3.06,0.8,4.7,0.8
		c2.2,0,4.09,1.43,4.77,3.41c0,0,0,0.01,0,0.01c0.18,0.51,0.27,1.06,0.27,1.62v18.58c0,0.57-0.1,1.12-0.28,1.64
		c-0.36,1.05-1.06,1.94-1.96,2.56c-0.26,0.17-0.53,0.32-0.82,0.44c-0.61,0.27-1.28,0.42-1.98,0.42s-1.37-0.15-1.98-0.42
		c-0.29-0.12-0.56-0.27-0.82-0.44c-0.9-0.61-1.6-1.51-1.96-2.56c0,0,0-0.01,0-0.01c-0.18-0.51-0.27-1.06-0.27-1.62V49.65h-9.27
		v15.34c0,1.29,0.17,2.55,0.5,3.75c1.19,4.35,4.38,7.88,8.52,9.54c1.64,0.66,3.43,1.02,5.3,1.02s3.66-0.36,5.3-1.02
		c4.13-1.66,7.33-5.2,8.52-9.54c0.33-1.19,0.5-2.45,0.5-3.75V43.41c0-1.14-0.13-2.24-0.39-3.3
		C227.47,39.89,227.41,39.67,227.35,39.46z"/>
	<path class="st0" d="M144.11,21.02c0,0.05,0,0.11,0,0.16c-0.08,5.14-4.28,9.28-9.44,9.28h-0.1V1.83h-9.54v76.34h9.54V41.03h0.1
		c4.9,0,8.94,3.74,9.4,8.52h0.04v27.21c0,0,0,0,0,0v1.42h9.54V50.36c0-0.27-0.01-0.55-0.02-0.82c-0.06-1.22-0.26-2.41-0.57-3.55
		c-0.85-3.04-2.92-5.7-3.16-5.99c-1.97-2.48-4.19-3.95-5.69-4.77c4-1.04,6.94-2.95,8.01-4.77c0.5-0.84,0.83-1.79,0.83-1.79
		c0.39-1.09,0.6-2.27,0.6-3.5V1.83h-9.54V21.02z"/>
</g>
</svg>
