<?xml version="1.0" encoding="utf-8"?>
<!-- Generator: Adobe Illustrator 26.0.2, SVG Export Plug-In . SVG Version: 6.00 Build 0)  -->
<svg version="1.1" id="Шар_1" xmlns="http://www.w3.org/2000/svg" xmlns:xlink="http://www.w3.org/1999/xlink" x="0px" y="0px"
	 viewBox="0 0 300 300" style="enable-background:new 0 0 300 300;" xml:space="preserve">
<style type="text/css">
	.st0{fill:#1E1E21;}
	.st1{fill:#F0F0F7;}
</style>
<path class="st0" d="M150,300L150,300C67.2,300,0,232.8,0,150v0C0,67.2,67.2,0,150,0h0c82.8,0,150,67.1,150,150v0
	C300,232.8,232.8,300,150,300z"/>
<g>
	<path class="st1" d="M173.9,68.1c-2.9-2.9-6.3-5.3-10.1-6.9c-0.8-0.3-1.6-0.7-2.4-0.9l0,0c-2.1-0.8-4.3-1.3-6.5-1.6
		c-1.5-0.2-3.1-0.3-4.7-0.3s-3.1,0.1-4.7,0.3c-2.3,0.3-4.4,0.8-6.5,1.6l0,0c-0.8,0.3-1.6,0.6-2.4,0.9c-9.3,4.1-16.3,12.4-18.9,22.3
		c-0.7,2.7-1,5.4-1,8.3v27.1c0,2.7,0.3,5.2,0.9,7.7c0.1,0.5,0.3,1,0.4,1.5c0,0,0,0.1,0,0.1c0.3,1.1,0.7,2.1,1.1,3.1
		c0.6,1.5,1.3,3,2.2,4.4c0.5,1,1.2,1.9,1.8,2.8c0.1,0.2,0.3,0.3,0.4,0.5c3.9,5.2,9.3,9.2,15.5,11.4c0,0,0,0,0,0c0,0,0,0,0.1,0h0.1
		c3.5,1.2,7.2,1.9,11,1.9c5.2,0,9.6,3.4,11.2,8c0,0,0,0,0,0c0.4,1.2,0.6,2.5,0.6,3.8v43.5c0,1.3-0.2,2.6-0.6,3.8
		c-0.8,2.5-2.5,4.5-4.6,6c-0.6,0.4-1.2,0.8-1.9,1c-1.4,0.6-3,1-4.6,1c-1.6,0-3.2-0.3-4.6-1c-0.7-0.3-1.3-0.6-1.9-1
		c-2.1-1.4-3.8-3.5-4.6-6c0,0,0,0,0,0c-0.4-1.2-0.6-2.5-0.6-3.8v-34.9h-21.7v35.9c0,3,0.4,6,1.2,8.8c2.8,10.2,10.3,18.5,19.9,22.3
		c3.8,1.6,8,2.4,12.4,2.4c4.4,0,8.6-0.8,12.4-2.4c9.7-3.9,17.2-12.2,19.9-22.3c0.8-2.8,1.2-5.7,1.2-8.8v-50.5c0-2.7-0.3-5.2-0.9-7.7
		c-0.1-0.5-0.3-1-0.4-1.5c0,0,0-0.1,0-0.1c-0.3-1.1-0.7-2.1-1.1-3.1c-0.6-1.5-1.3-3-2.2-4.4c-0.5-1-1.2-1.9-1.8-2.8
		c-0.1-0.2-0.3-0.3-0.4-0.5c-3.9-5.2-9.3-9.2-15.5-11.4c0,0,0,0,0,0c0,0,0,0-0.1,0h-0.1c-3.5-1.2-7.2-1.9-11-1.9
		c-5.2,0-9.6-3.4-11.2-8c0,0,0,0,0,0c-0.4-1.2-0.6-2.5-0.6-3.8V92.9c0-1.3,0.2-2.6,0.6-3.8c0,0,0,0,0,0c0.8-2.2,2.2-4.1,4-5.6
		c2-1.5,4.5-2.4,7.2-2.4c2.7,0,5.2,0.9,7.2,2.4c0.4,0.3,0.8,0.7,1.2,1c1.3,1.3,2.2,2.8,2.8,4.5c0.4,1.2,0.6,2.5,0.6,3.8v11.4h21.7
		V91.8c0-2.8-0.4-5.6-1-8.3C181.2,77.6,178.1,72.3,173.9,68.1z"/>
</g>
</svg>
