<?xml version="1.0" encoding="utf-8"?>
<!-- Generator: Adobe Illustrator 26.0.2, SVG Export Plug-In . SVG Version: 6.00 Build 0)  -->
<svg version="1.1" id="Шар_1" xmlns="http://www.w3.org/2000/svg" xmlns:xlink="http://www.w3.org/1999/xlink" x="0px" y="0px"
	 viewBox="0 0 100 100" style="enable-background:new 0 0 100 100;" xml:space="preserve">
<style type="text/css">
	.st0{fill:#F7F7F6;}
	.st1{fill:#222323;}
	.st2{fill:#EEEEEF;}
		.st3{clip-path:url(#SVGID_00000093176199689846159490000003794191580454760091_);fill:url(#SVGID_00000065772572256615375330000000611187890841719224_);}
	.st4{opacity:0.53;}
	.st5{fill:#44BDDB;}
	.st6{fill:#FFE94E;}
	.st7{fill:#FFFFFF;}
	.st8{fill:#2B2B2B;}
	.st9{fill:#252384;}
	.st10{fill:#F3DC06;}
	.st11{fill:#333333;}
	.st12{fill:#484747;}
	.st13{fill:#8714C9;}
	.st14{fill:#1E1D1D;}
	.st15{fill:#E31313;}
	.st16{fill:#1D1D1B;}
	.st17{fill:#FFD900;}
	.st18{fill:#3F3F3F;}
	.st19{fill:#F4F4F4;}
</style>
<path class="st19" d="M71.04,0H28.96C13.02,0,0,13.03,0,28.96v42.09C0,86.98,13.02,100,28.96,100h42.09
	C86.98,100,100,86.98,100,71.04V28.96C100,13.03,86.98,0,71.04,0z M76.59,28.42c-0.9,5.02-2.03,10-3.07,14.98
	c-2.01,9.52-4.04,19.03-6.06,28.55c-0.81,3.83-2.82,4.61-5.95,2.31c-4.08-3.01-8.15-6.01-12.23-9c-0.31-0.23-0.63-0.44-1.04-0.72
	c-2.35,2.26-4.6,4.48-6.92,6.61c-0.65,0.6-1.5,0.98-2.26,1.47c-0.1-0.09-0.22-0.18-0.34-0.26c0.1-1.64,0.19-3.29,0.31-4.93
	c0.18-2.72,0.43-5.43,0.57-8.15c0.04-0.81,0.31-1.37,0.9-1.89c8.19-7.37,16.36-14.77,24.54-22.16c0.38-0.35,0.72-0.76,1.13-1.2
	c-0.95-0.72-1.69-0.26-2.35,0.16c-2.88,1.78-5.74,3.58-8.61,5.39c-7.55,4.74-15.08,9.52-22.64,14.23c-0.43,0.26-1.12,0.37-1.59,0.22
	c-4.29-1.28-8.55-2.63-12.82-3.98c-1.01-0.32-2.28-0.6-2.33-1.94c-0.06-1.31,1.1-1.85,2.1-2.25c4.99-1.98,10-3.89,15.01-5.83
	c13.07-5.05,26.14-10.09,39.19-15.12C75.21,23.69,77.17,25.14,76.59,28.42z"/>
</svg>
