<?xml version="1.0" encoding="utf-8"?>
<!-- Generator: Adobe Illustrator 26.0.2, SVG Export Plug-In . SVG Version: 6.00 Build 0)  -->
<svg version="1.1" id="Шар_1" xmlns="http://www.w3.org/2000/svg" xmlns:xlink="http://www.w3.org/1999/xlink" x="0px" y="0px"
	 viewBox="0 0 100 100" style="enable-background:new 0 0 100 100;" xml:space="preserve">
<style type="text/css">
	.st0{fill:#F7F7F6;}
	.st1{fill:#222323;}
	.st2{fill:#EEEEEF;}
		.st3{clip-path:url(#SVGID_00000059296277705541041620000006089894316141844385_);fill:url(#SVGID_00000088811632850559801170000017792323211601189773_);}
	.st4{opacity:0.53;}
	.st5{fill:#44BDDB;}
	.st6{fill:#FFE94E;}
	.st7{fill:#FFFFFF;}
	.st8{fill:#2B2B2B;}
	.st9{fill:#252384;}
	.st10{fill:#F3DC06;}
	.st11{fill:#333333;}
	.st12{fill:#484747;}
	.st13{fill:#8714C9;}
	.st14{fill:#1E1D1D;}
	.st15{fill:#E31313;}
	.st16{fill:#1D1D1B;}
	.st17{fill:#FFD900;}
	.st18{fill:#3F3F3F;}
	.st19{fill:#F4F4F4;}
</style>
<path class="st19" d="M71.04,0H28.96C13.03,0,0,13.03,0,28.96v42.09C0,86.98,13.03,100,28.96,100h42.09
	C86.98,100,100,86.98,100,71.04V28.96C100,13.03,86.98,0,71.04,0z M75.13,43.17c-0.09,1.24-0.7,2.09-2.01,2.13
	c-1.11,0.04-1.85-1.04-1.74-2.44c0.44-5.43-1.55-9.78-5.88-13.03c-2.87-2.14-6.12-2.98-9.67-2.74c-1.53,0.11-2.57-0.52-2.64-1.68
	c-0.09-1.13,0.87-1.96,2.4-2.09c8.87-0.7,17.15,5.49,19.15,14.36c0.28,1.22,0.37,2.46,0.55,3.7c-0.06,0-0.11,0-0.17,0.02
	C75.13,41.98,75.16,42.58,75.13,43.17z M67.88,41.36c0.06,1.22-0.48,2.07-1.72,2.13c-1.18,0.04-1.7-0.74-1.83-1.87
	c-0.55-4.38-2.77-6.65-7.08-7.17c-1.2-0.15-2.03-0.65-1.96-1.89c0.07-1.24,0.96-1.7,2.16-1.7C62.82,30.82,67.94,35.96,67.88,41.36z
	 M77.35,73.17c-1.9,2.01-3.92,3.94-5.97,5.8c-1.61,1.44-3.64,1.87-6.64,1.79c-3.94-0.24-8.26-2.03-12.27-4.47
	c-12.05-7.36-21.63-17.12-28.15-29.7c-1.74-3.35-2.94-6.89-3.16-10.72c-0.17-3.05,0.7-5.66,3.03-7.76c1.46-1.29,2.79-2.74,4.18-4.12
	c2.5-2.48,5.79-2.62,8.3-0.18c2.75,2.7,5.45,5.47,8.04,8.34c2.7,2.96,1.7,7.15-1.96,8.74c-3.7,1.61-4.9,4.18-3.31,7.86
	c2.68,6.21,7.15,10.74,13.35,13.46c3.07,1.35,6.17-0.02,7.56-3.09c1.77-3.99,6.12-4.77,9.17-1.66c2.59,2.64,5.16,5.31,7.71,7.99
	C79.45,67.77,79.54,70.82,77.35,73.17z M82.02,47.14c-0.2,1.33-0.92,2.16-2.33,1.87c-1.39-0.3-1.42-1.39-1.24-2.57
	c1.59-9.32-1.28-16.95-8.87-22.64c-3.86-2.88-8.32-4.14-13.14-4.09c-2.2,0.02-3.14-0.54-3.16-1.74c0-1.24,0.91-1.81,3.05-1.92
	C68.69,15.4,80.4,25.11,82.26,37.6c0.2,1.33,0.31,2.68,0.48,4.31C82.52,43.5,82.28,45.31,82.02,47.14z"/>
</svg>
