<?xml version="1.0" encoding="utf-8"?>
<!-- Generator: Adobe Illustrator 26.0.2, SVG Export Plug-In . SVG Version: 6.00 Build 0)  -->
<svg version="1.1" id="Шар_1" xmlns="http://www.w3.org/2000/svg" xmlns:xlink="http://www.w3.org/1999/xlink" x="0px" y="0px"
	 viewBox="0 0 100 100" style="enable-background:new 0 0 100 100;" xml:space="preserve">
<style type="text/css">
	.st0{fill:#F4F4F4;}
</style>
<g>
	<path class="st0" d="M74.2,26c-1.6-1.5-8.5-5.8-22.9-5.9c0,0-17.1-1.1-25.4,6.4c-4.6,4.6-6.1,11.3-6.3,19.6
		c-0.1,8.3-1,24.1,14.1,28.3c0,0-0.1,11.8-0.1,12.8c0,0.7,0.1,1.2,0.5,1.3c0.3,0,0.7-0.1,1.1-0.5c2.5-2.5,10.2-11.8,10.2-11.8
		c10.4,0.6,18.6-1.4,19.5-1.7c2.1-0.6,13.4-1.6,15.3-17.1C82.1,41.5,79.4,30.6,74.2,26z M67.8,63.7c-0.7,1.3-1.7,2.5-3,3.6
		c-1,0.9-2,1.3-3,1.5h-0.4c-0.4,0-0.9-0.1-1.3-0.2c-1.5-0.4-4-1.5-8.3-3.8c-2.7-1.5-5-3.1-6.9-4.6c-1-0.8-2.1-1.7-3.1-2.8L41.4,57
		c-1.1-1.1-2-2.1-2.8-3.1C37.1,52,35.5,49.7,34,47c-2.3-4.2-3.4-6.7-3.8-8.3c-0.1-0.4-0.2-0.8-0.2-1.3V37c0.1-1,0.6-2,1.5-3
		c1.1-1.2,2.3-2.2,3.6-3c1.4-0.7,2.7-0.5,3.6,0.6c0,0,1.8,2.2,2.6,3.3c0.7,1,1.7,2.6,2.3,3.5c0.9,1.6,0.3,3.3-0.5,4l-1.8,1.4
		c-0.9,0.7-0.8,2.1-0.8,2.1s2.5,9.9,12.4,12.5l0,0c0,0,1.4,0.1,2.1-0.8l1.4-1.8c0.7-0.9,2.3-1.5,4-0.6c0.9,0.5,2.5,1.5,3.5,2.3
		c1.1,0.8,3.3,2.6,3.3,2.6C68.3,61,68.5,62.3,67.8,63.7z M51.3,35.2c-0.5,0-0.9-0.5-0.9-1c0-0.5,0.5-0.9,1-0.9
		c4.1,0.3,7.3,1.8,9.6,4.3c2.3,2.5,3.5,5.8,3.4,9.5c0,0.5-0.4,0.9-1,0.9c0,0,0,0,0,0c-0.5,0-1-0.5-0.9-1c0.1-3.2-0.9-6-2.8-8.1
		C57.7,36.7,54.9,35.5,51.3,35.2z M59.4,45.4c0,0.5-0.4,1-0.9,1c0,0,0,0-0.1,0c-0.5,0-0.9-0.4-1-0.9c-0.2-3.3-1.7-4.9-4.9-5.1
		c-0.5,0-0.9-0.5-0.9-1c0-0.5,0.5-0.9,1-0.9C56.9,38.7,59.2,41.1,59.4,45.4z M68.5,50c-0.5,0-1-0.4-1-1c0-5.7-1.8-10.3-5.2-13.7
		c-3.4-3.3-7.7-5-12.8-5c-0.5,0-1-0.4-1-1s0.4-1,1-1c5.6,0,10.4,1.9,14.2,5.6c3.8,3.7,5.8,8.8,5.8,15.1C69.4,49.6,69,50,68.5,50z"/>
	<path class="st0" d="M71,0H29C13,0,0,13,0,29V71c0,15.9,13,29,29,29H71c15.9,0,29-13,29-29V29C100,13,87,0,71,0z M85.4,58.9
		C83.1,77.4,69.2,79.2,66.7,80c-1.1,0.4-10.5,2.7-22.7,1.7c-1.3,1.6-3.1,3.6-4.4,5c-2.4,2.5-3.8,4.9-6.3,4.1c-2-0.6-1.9-3.7-1.9-3.7
		v-7.7C13.5,74.3,13.8,55.8,14,45.9c0.2-9.9,2.1-17.8,7.6-23.3c9.8-9,29.9-7.8,29.9-7.8c17.1,0.1,24.7,5.7,26.6,7.4
		C84.4,27.6,87.8,39.7,85.4,58.9z"/>
</g>
</svg>
